<svg xmlns="http://www.w3.org/2000/svg" viewBox="0 0 64 64">
  <circle cx="32" cy="32" r="30" fill="#f8f5ec" stroke="#c9c2ad" stroke-width="1"/>
  <path d="M10 18 Q 32 28 54 18" fill="none" stroke="#c0392b" stroke-width="2.4" stroke-linecap="round"/>
  <path d="M10 46 Q 32 36 54 46" fill="none" stroke="#c0392b" stroke-width="2.4" stroke-linecap="round"/>
  <g stroke="#c0392b" stroke-width="1.4" stroke-linecap="round">
    <line x1="14" y1="17"   x2="14" y2="13"/>
    <line x1="20" y1="21"   x2="20" y2="17"/>
    <line x1="26" y1="24"   x2="26" y2="20"/>
    <line x1="32" y1="25"   x2="32" y2="21"/>
    <line x1="38" y1="24"   x2="38" y2="20"/>
    <line x1="44" y1="21"   x2="44" y2="17"/>
    <line x1="50" y1="17"   x2="50" y2="13"/>
    <line x1="14" y1="47"   x2="14" y2="51"/>
    <line x1="20" y1="43"   x2="20" y2="47"/>
    <line x1="26" y1="40"   x2="26" y2="44"/>
    <line x1="32" y1="39"   x2="32" y2="43"/>
    <line x1="38" y1="40"   x2="38" y2="44"/>
    <line x1="44" y1="43"   x2="44" y2="47"/>
    <line x1="50" y1="47"   x2="50" y2="51"/>
  </g>
</svg>
